<?xml version="1.0" encoding="utf-8"?>
<!-- Generator: Adobe Illustrator 23.0.3, SVG Export Plug-In . SVG Version: 6.00 Build 0)  -->
<svg version="1.0" id="Layer_1" xmlns="http://www.w3.org/2000/svg" xmlns:xlink="http://www.w3.org/1999/xlink" x="0px" y="0px"
	 viewBox="0 0 2855.49 1685.11" style="enable-background:new 0 0 2855.49 1685.11;" xml:space="preserve">
<style type="text/css">
	.st0{fill:#B76914;}
	.st1{font-family:'PTSans-Bold';}
	.st2{font-size:286.1379px;}
	.st3{font-size:93.562px;}
	.st4{letter-spacing:116.39;}
</style>
<g>
	<g>
		<g>
			<path class="st0" d="M1568.61,642.35c-38.83,53.39-77.26,106.22-116.28,159.86c41.86,51.9,83.87,103.97,126.67,157.02
				c-3.58,0.24-5.86,0.52-8.14,0.52c-30.15,0.03-60.3-0.14-90.45,0.14c-5.77,0.05-9.44-1.84-12.99-6.26
				c-19.72-24.56-39.72-48.89-59.64-73.3c-1.37-1.67-2.8-3.29-4.92-5.76c-6.44,9.14-11.19,18.75-16.65,27.88
				c-5.71,9.55-11.12,19.28-16.71,28.91c-5.44,9.37-10.94,18.71-16.45,28.14c-13.84,0-27.37,0-41.6,0c0.61-1.43,0.88-2.64,1.55-3.57
				c29.51-40.71,47.14-86.59,58.18-135.18c4.5-19.79,7.45-39.94,11.31-59.88c0.59-3.07,1.73-6.3,3.5-8.84
				c24.52-35.21,49.22-70.28,73.76-105.47c2.22-3.18,4.5-4.77,8.57-4.75c32.05,0.16,64.1,0.09,96.15,0.11
				C1565.52,641.92,1566.56,642.13,1568.61,642.35z"/>
			<path class="st0" d="M1286.94,642.17c28.69,0,56.05,0,84,0c0.22,2.26,0.69,4.33,0.57,6.36c-1.59,27.07-3.55,54.13-4.82,81.21
				c-1.01,21.46-3.84,42.68-8.31,63.61c-8.29,38.77-18.61,76.94-36.79,112.54c-9.63,18.86-22.02,38.1-34.18,51.81
				c-0.19-3.23-0.45-5.66-0.45-8.08c-0.03-43.71-0.02-87.42-0.02-131.13c0-55.61,0.01-111.21,0.01-166.82
				C1286.94,648.74,1286.94,645.81,1286.94,642.17z"/>
			<path class="st0" d="M1330.78,452.36c-2.69,0.83-4.52,1.26-6.26,1.95c-5.58,2.21-9.18,6.28-8.81,12.35
				c0.39,6.43,1.21,12.95,2.93,19.13c1.96,7.02,5.26,13.64,7.72,20.53c2.73,7.64,5.49,15.3,7.66,23.12
				c3.05,11.04,1.47,22.05-1.37,32.93c-1.92,7.34-3.85,14.68-5.65,22.05c-3.37,13.76-1.07,26.36,7.87,37.56
				c0.65,0.81,1.11,1.77,1.98,3.2c-16.71,0-32.83,0-49.91,0c0-2.97,0-5.6,0-8.23c0-50.47-0.03-100.94,0.05-151.41
				c0.01-4.59,0.37-9.23,1.17-13.74c0.55-3.13,1.74-6.31,3.33-9.07c4.83-8.41,13.28-11.36,22.32-7.93
				C1321.88,437.84,1327.07,443.85,1330.78,452.36z M1310.25,609.2c-0.03-2.78-2.83-5.78-5.6-5.97c-3.02-0.22-6.42,2.97-6.41,6
				c0.01,3.01,3.46,6.2,6.45,5.97C1307.48,614.98,1310.28,611.96,1310.25,609.2z M1310.25,463.77c0.03-3.22-3.04-6.25-6.2-6.12
				c-2.85,0.12-5.72,2.9-5.86,5.68c-0.16,3.07,2.97,6.07,6.26,5.99C1307.5,469.24,1310.23,466.64,1310.25,463.77z M1304.02,530.68
				c-3.04,0.1-5.68,2.64-5.81,5.58c-0.14,3.18,2.87,6.14,6.18,6.07c2.91-0.06,5.69-2.75,5.81-5.64
				C1310.34,533.38,1307.44,530.56,1304.02,530.68z"/>
		</g>
		<text transform="matrix(0.9193 0 0 1 884.2549 1196.9838)" class="st1 st2">Kitchen</text>
	</g>
	<text transform="matrix(0.9193 0 0 1 892.0499 1286.1801)" class="st1 st3 st4">KATANAS</text>
</g>
</svg>
